<svg xmlns="http://www.w3.org/2000/svg" width="1200" height="630" viewBox="0 0 1200 630">
  <rect width="1200" height="630" fill="#F4F0E8"/>
  <g stroke="#1A1714" stroke-width="1" fill="none" opacity="0.07">
    <path d="M-50 440 Q 300 310, 600 360 Q 900 410, 1250 330"/>
    <path d="M-50 410 Q 300 272, 600 322 Q 900 372, 1250 292"/>
    <path d="M-50 378 Q 320 236, 600 282 Q 892 328, 1250 248"/>
    <path d="M 180 360 Q 480 188, 700 238 Q 880 278, 1080 208"/>
    <path d="M 200 335 Q 480 155, 700 205 Q 880 248, 1070 172"/>
    <path d="M 430 308 Q 575 120, 730 178"/>
    <path d="M 445 282 Q 575 94, 720 152"/>
  </g>
  <text x="600" y="296" font-family="Georgia, serif" font-size="52" font-weight="500" fill="#1A1714" text-anchor="middle" letter-spacing="-1.5">Walon Foundation</text>
  <text x="600" y="348" font-family="monospace" font-size="15" fill="#8A8174" text-anchor="middle" letter-spacing="4">FREETOWN · SIERRA LEONE</text>
</svg>
